<?xml version="1.0" standalone="no"?>
<!DOCTYPE svg PUBLIC "-//W3C//DTD SVG 20010904//EN"
 "http://www.w3.org/TR/2001/REC-SVG-20010904/DTD/svg10.dtd">
<svg version="1.0" xmlns="http://www.w3.org/2000/svg"
 width="260.000000pt" height="260.000000pt" viewBox="0 0 260.000000 260.000000"
 preserveAspectRatio="xMidYMid meet">
<metadata>
Created by potrace 1.14, written by Peter Selinger 2001-2017
</metadata>
<g transform="translate(0.000000,260.000000) scale(0.100000,-0.100000)"
fill="#000000" stroke="none">
<path d="M0 1300 l0 -1300 1300 0 1300 0 0 1300 0 1300 -1300 0 -1300 0 0
-1300z m268 -12 l2 -518 -25 0 -25 0 0 521 0 520 23 -3 22 -3 3 -517z m90 0
l2 -518 -25 0 -25 0 0 521 0 520 23 -3 22 -3 3 -517z m90 0 l2 -518 -25 0 -25
0 0 521 0 520 23 -3 22 -3 3 -517z m90 0 l2 -518 -25 0 -25 0 0 521 0 520 23
-3 22 -3 3 -517z m332 514 c0 -5 -58 -123 -129 -263 l-130 -253 130 -252 c71
-138 129 -254 129 -257 0 -4 -11 -7 -24 -7 -22 0 -39 28 -156 258 l-132 257
133 262 c115 226 137 263 157 263 12 0 22 -4 22 -8z m100 -2 c0 -5 -58 -123
-129 -261 l-129 -251 129 -253 c71 -138 129 -255 129 -258 0 -4 -11 -7 -24 -7
-22 0 -38 27 -156 260 l-131 260 127 248 c70 136 131 253 137 260 11 14 47 16
47 2z m100 -2 c-1 -7 -58 -125 -129 -261 l-128 -248 128 -252 c71 -139 128
-255 129 -259 0 -5 -11 -8 -23 -8 -21 0 -40 32 -156 260 l-132 259 122 238
c67 131 128 248 136 261 14 23 53 31 53 10z m100 1 c0 -7 -57 -124 -127 -260
l-128 -249 131 -260 c128 -254 130 -260 105 -260 -24 0 -37 20 -159 259 l-132
259 121 238 c67 132 128 249 136 262 14 23 53 31 53 11z m666 -361 c81 -205
173 -438 204 -518 54 -136 57 -145 38 -148 -11 -2 -24 0 -29 5 -4 4 -89 215
-189 468 -100 253 -186 467 -190 475 -7 12 -11 9 -20 -15 -6 -16 -91 -232
-189 -480 -172 -436 -179 -450 -206 -453 -20 -3 -26 0 -22 10 9 22 389 982
398 1006 6 14 17 22 33 22 23 0 34 -25 172 -372z m-46 352 c15 -28 400 -1002
400 -1012 0 -4 -10 -8 -23 -8 -22 0 -39 41 -222 502 -109 276 -200 510 -203
520 -6 25 34 24 48 -2z m292 -485 c109 -275 200 -508 204 -517 4 -14 0 -18
-20 -18 -23 0 -31 17 -125 253 -249 628 -301 762 -301 775 0 8 9 12 22 10 19
-3 48 -68 220 -503z m64 83 c92 -233 184 -466 204 -518 36 -91 37 -95 18 -98
-11 -2 -24 0 -29 5 -7 7 -409 1018 -409 1029 0 2 11 4 24 4 23 0 36 -29 192
-422z m-458 218 c9 -21 -7 -68 -119 -353 -72 -180 -144 -363 -160 -405 -27
-69 -33 -78 -56 -78 -20 0 -24 4 -19 18 35 97 332 842 337 842 3 0 11 -11 17
-24z m47 -127 c6 -26 -16 -91 -126 -370 -129 -326 -135 -339 -160 -339 l-27 0
120 303 c66 166 131 332 145 370 14 37 29 67 33 67 5 0 12 -14 15 -31z m49
-127 c5 -20 -21 -96 -102 -302 -102 -259 -110 -275 -136 -278 l-26 -3 18 48
c107 280 227 571 233 568 4 -3 10 -18 13 -33z m110 -248 c12 -31 5 -34 -84
-34 -89 0 -96 3 -84 34 9 23 159 23 168 0z m36 -83 c0 -5 3 -16 6 -25 5 -14
-10 -16 -126 -16 -116 0 -131 2 -126 16 3 9 6 20 6 25 0 5 54 9 120 9 66 0
120 -4 120 -9z m41 -108 l8 -23 -164 0 c-94 0 -165 4 -165 9 0 40 8 42 163 39
145 -3 150 -4 158 -25z"/>
</g>
</svg>
